<svg xmlns="http://www.w3.org/2000/svg" viewBox="0 0 417.38 383.15"><defs><style>.cls-1{fill:#fff;}.cls-2{fill:none;}.cls-3{fill:#4d5152;}.cls-4{fill:#3d6;}</style></defs><g id="Layer_2" data-name="Layer 2"><g id="Layer_1-2" data-name="Layer 1"><path class="cls-1" d="M269.21,80.09a80.13,80.13,0,0,0-67.43-44.27c-1.38-.07-2.77-.11-4.17-.11s-2.73,0-4.08.11a79.31,79.31,0,0,0-32.66,8.87A80.16,80.16,0,0,0,130.1,72.88,77.79,77.79,0,0,0,126,80.05a79.38,79.38,0,0,0-8.34,32.47c0,1.06-.08,2.12-.08,3.19,0,1.7.06,3.38.16,5.06a82.58,82.58,0,0,0,8.81,32.15q1.87,3.68,4.09,7.16a79.76,79.76,0,0,0,23.41,23.8c1.15.75,2.33,1.49,3.53,2.18v26.65h-6v8h6v13h-6v8h30v18h32v-18h30v-8h-6v-13h6v-8h-6V186.06c1.22-.71,2.41-1.46,3.59-2.24A80,80,0,0,0,264.55,160q2.22-3.48,4.09-7.16a82.64,82.64,0,0,0,8.8-32.1c.11-1.68.17-3.36.17-5.06,0-1.07,0-2.13-.08-3.19A79.38,79.38,0,0,0,269.21,80.09Z"/><rect class="cls-2" x="189.61" y="241.71" width="16" height="10"/><path class="cls-3" d="M269.21,80.09a80.13,80.13,0,0,0-67.43-44.27c-1.38-.07-2.77-.11-4.17-.11s-2.73,0-4.08.11a79.31,79.31,0,0,0-32.66,8.87A80.16,80.16,0,0,0,130.1,72.88,77.79,77.79,0,0,0,126,80.05a79.38,79.38,0,0,0-8.34,32.47c0,1.06-.08,2.12-.08,3.19,0,1.7.06,3.38.16,5.06a82.58,82.58,0,0,0,8.81,32.15q1.87,3.68,4.09,7.16a79.76,79.76,0,0,0,23.41,23.8c1.15.75,2.33,1.49,3.53,2.18v26.65h-6v8h6v13h-6v8h30v18h32v-18h30v-8h-6v-13h6v-8h-6V186.06c1.22-.71,2.41-1.46,3.59-2.24A80,80,0,0,0,264.55,160q2.22-3.48,4.09-7.16a82.64,82.64,0,0,0,8.8-32.1c.11-1.68.17-3.36.17-5.06,0-1.07,0-2.13-.08-3.19A79.38,79.38,0,0,0,269.21,80.09ZM193.53,220.71h36.08v13h-64v-13Zm12.08,31h-16v-10h16Zm56.11-102.84a73.81,73.81,0,0,1-24.52,28c-1.78,1.19-3.6,2.3-5.49,3.31l-1.62.88-.48.26v31.38h-16V195.65h-8v17.06h-16V195.65h-8v17.06h-16V181.32l-.41-.22-1.7-.91c-1.86-1-3.67-2.09-5.42-3.25a71.84,71.84,0,0,1-20.49-20.86,73.15,73.15,0,0,1-4.09-7.16,74.48,74.48,0,0,1-7.71-28.15c-.12-1.68-.18-3.36-.18-5.06,0-1.07,0-2.13.08-3.19A71.24,71.24,0,0,1,137,76.88a71.92,71.92,0,0,1,27.84-25.26,71.46,71.46,0,0,1,28.66-7.78c1.35-.08,2.71-.13,4.08-.13s2.79.06,4.17.13a72.1,72.1,0,0,1,35.75,12,72.53,72.53,0,0,1,20.68,21.09,71.08,71.08,0,0,1,11.32,35.6c0,1.06.08,2.12.08,3.19,0,1.7-.06,3.38-.18,5.06A74.47,74.47,0,0,1,261.72,148.87Z"/><path class="cls-3" d="M22.05,292.85c-6.64,0-12.3,2.26-16.37,6.54A21.11,21.11,0,0,0,0,313.82a20.64,20.64,0,0,0,5.77,14.51,21.32,21.32,0,0,0,15.74,6.27A22.2,22.2,0,0,0,37.72,328a21.82,21.82,0,0,0,6-15,19.65,19.65,0,0,0-5.82-14.2C33.94,294.9,28.45,292.85,22.05,292.85Zm-.36,34.92c-6.61,0-13.29-4.88-13.29-14.19,0-6.91,4.65-13.89,13.53-13.89,6.49,0,13.47,4.31,13.47,13.77C35.4,320.39,30.59,327.77,21.69,327.77Z"/><path class="cls-3" d="M87.36,293.57h-8V318.2c0,6.08-3.27,9.57-9,9.57-4.12,0-9-1.71-9-9.81V293.57h-8v25.17c0,5.4,1.68,9.53,5,12.25,2.88,2.36,7,3.61,12,3.61a17.78,17.78,0,0,0,12-4.26c3.28-3,5-7.29,5-12.44Z"/><polygon class="cls-3" points="116.7 333.88 116.7 300.35 129.84 300.35 129.84 293.57 95.52 293.57 95.52 300.35 108.72 300.35 108.72 333.88 116.7 333.88"/><path class="cls-3" d="M151.58,310.22c-3.74-1.88-7-3.5-7-6.54,0-2.32,2.34-3.81,6-3.81a27.39,27.39,0,0,1,9.42,2l.17.08,1.3-7.15,0-.12-.12-.05a39.34,39.34,0,0,0-10.91-1.8c-9.59,0-13.95,6-13.95,11.61,0,6.89,5.68,9.79,10.7,12.34,3.82,1.95,7.12,3.63,7.12,6.68,0,2.82-3.19,4.1-6.15,4.1h-.27a16.57,16.57,0,0,1-9.53-3.45l-.17-.14-2.33,7.16.09.06a24.16,24.16,0,0,0,12.33,3.38c8.28,0,14.07-4.82,14.07-11.72C162.36,315.62,156.63,312.75,151.58,310.22Z"/><polygon class="cls-3" points="200.52 309.95 180.48 309.95 180.48 293.57 172.44 293.57 172.44 333.88 180.48 333.88 180.48 316.67 200.52 316.67 200.52 333.88 208.5 333.88 208.5 293.57 200.52 293.57 200.52 309.95"/><rect class="cls-3" x="221.22" y="293.57" width="8.04" height="40.32"/><polygon class="cls-3" points="269.22 321.44 249.99 293.63 249.95 293.57 241.92 293.57 241.92 333.88 249.78 333.88 249.78 306.2 268.94 333.82 268.99 333.88 277.08 333.88 277.08 293.57 269.22 293.57 269.22 321.44"/><polygon class="cls-3" points="297.78 316.79 311.58 316.79 311.58 310.06 297.78 310.06 297.78 300.35 315.3 300.35 315.3 293.57 289.74 293.57 289.74 333.88 315.72 333.88 315.72 327.11 297.78 327.11 297.78 316.79"/><path class="cls-3" d="M354.12,305.66c0-7.57-5.58-12.09-14.91-12.09H325.74v40.31h8V318.77h5.47L349,333.82l0,.06h9.48l-11.34-17.13A12.22,12.22,0,0,0,354.12,305.66Zm-20.34-5.31H338c5.15,0,7.76,1.9,7.76,5.67s-2.73,6-7.7,6h-4.23Z"/><polygon class="cls-3" points="388.56 293.57 379.11 309.08 370 293.64 369.95 293.57 360.54 293.57 375.12 317.1 375.12 333.88 383.16 333.88 383.16 317.04 397.67 293.57 388.56 293.57"/><path class="cls-3" d="M89.66,363.67c0-.75.65-1.22,2.21-1.22a7.91,7.91,0,0,1,3.71,1.05l.88-3.43a11.31,11.31,0,0,0-4.59-.85c-4.62,0-6.43,2.31-6.43,4.79,0,4.73,7.28,4.83,7.28,6.94,0,.78-.78,1.32-2.41,1.32a7.29,7.29,0,0,1-4.36-1.6l-.88,3.47a10.41,10.41,0,0,0,5.41,1.36c4.11,0,6.42-2.07,6.42-4.93C96.9,365.85,89.66,365.78,89.66,363.67Z"/><rect class="cls-3" x="100.98" y="359.62" width="4.25" height="15.47"/><path class="cls-3" d="M103.12,351.5a2.38,2.38,0,1,0,2.49,2.38A2.36,2.36,0,0,0,103.12,351.5Z"/><path class="cls-3" d="M129.74,359.22a8.12,8.12,0,0,0-5.74,2.92,3.69,3.69,0,0,0-4-2.92,7.9,7.9,0,0,0-5.67,2.89v-2.83l-4.08.68v15.13h4.25V365.3c1.08-1.12,2.61-2.41,3.91-2.41s1.56.92,1.56,3v9.21h4.22v-9.82c1.08-1.09,2.61-2.38,3.91-2.38,1.15,0,1.56.92,1.56,3v9.21h4.22v-11C133.93,360.75,132.36,359.22,129.74,359.22Z"/><path class="cls-3" d="M147.39,359.22a4.69,4.69,0,0,0-4.45,2.58v-2.52l-4.08.68v23.12l4.25-.68v-7.55a5.83,5.83,0,0,0,2.95.65c5.14,0,7.82-4.21,7.82-8.63C153.88,362.68,151.47,359.22,147.39,359.22Zm-2,13.12c-1.39,0-2.24-.54-2.24-1.39v-6.09c.44-.65,1.7-2.31,3.46-2.31s2.93,1.7,2.93,4.59C149.5,370.61,147.76,372.34,145.35,372.34Z"/><polygon class="cls-3" points="158.07 375.09 162.32 375.09 162.32 350.72 158.07 351.4 158.07 375.09"/><path class="cls-3" d="M173.47,369.76l-3.61-10.14h-4.41l5.94,15.07-.54,1.29a6.9,6.9,0,0,1-5.2,3.91l1.29,3.26c3.91-.37,6.66-3.71,7.92-6.93l6.43-16.6H177Z"/><path class="cls-3" d="M201.45,359.22a5,5,0,0,0-3.84,1.46v-10l-4.25.68v23.25a30.65,30.65,0,0,0,6.18.85c5.89,0,8.74-4.15,8.74-8.74C208.28,362.65,206,359.22,201.45,359.22Zm-1.87,13.29a7.2,7.2,0,0,1-2-.31v-8.56a5.08,5.08,0,0,1,3.06-1.19c2,0,3.26,1.66,3.26,4.62C203.93,370.61,202.13,372.51,199.58,372.51Z"/><path class="cls-3" d="M216.48,362.48v-3.2l-4.08.68v15.13h4.25v-9.28c.64-.95,2-2.55,3.64-2.55a4.23,4.23,0,0,1,1.46.31l.68-4.08a2.91,2.91,0,0,0-1.33-.27C218.69,359.22,217.12,361.39,216.48,362.48Z"/><path class="cls-3" d="M227.87,351.5a2.38,2.38,0,1,0,2.48,2.38A2.37,2.37,0,0,0,227.87,351.5Z"/><rect class="cls-3" x="225.73" y="359.62" width="4.25" height="15.47"/><polygon class="cls-3" points="235.11 375.09 239.36 375.09 239.36 350.72 235.11 351.4 235.11 375.09"/><polygon class="cls-3" points="244.49 375.09 248.74 375.09 248.74 350.72 244.49 351.4 244.49 375.09"/><path class="cls-3" d="M256,351.5a2.38,2.38,0,1,0,2.48,2.38A2.37,2.37,0,0,0,256,351.5Z"/><rect class="cls-3" x="253.88" y="359.62" width="4.25" height="15.47"/><path class="cls-3" d="M275.3,370.23v-6c0-3.4-1.23-5-5.2-5a12.8,12.8,0,0,0-7.11,2l1,3a9.5,9.5,0,0,1,4.9-1.83c1.9,0,2.14,1.09,2.14,2.55v.54c-5.65.75-9.05,2.62-9.05,6,0,2.31,1.84,4,4.66,4a5.52,5.52,0,0,0,4.83-2.45c.58,1.19,1.77,2.21,4.32,2.28L277,372A1.72,1.72,0,0,1,275.3,370.23Zm-4.25.17a4.64,4.64,0,0,1-3.23,2c-.82,0-1.5-.34-1.5-1.29,0-1.64,1.36-2.72,4.73-3.2Z"/><path class="cls-3" d="M290.7,359.22a8.17,8.17,0,0,0-5.85,2.92v-2.86l-4.08.68v15.13H285v-9.75c1.12-1.13,2.76-2.45,4.08-2.45,1.16,0,1.57.92,1.57,3v9.21h4.21v-11C294.88,360.75,293.32,359.22,290.7,359.22Z"/><path class="cls-3" d="M306.71,372c-1,0-1.59-.68-1.59-2.31v-7.07h4.72v-3h-4.72V355.1l-4.12.82v3.6l-2.55.85v2.28h2.42v8.09c0,3.16,2,4.76,4.82,4.76a9.31,9.31,0,0,0,5.17-1.7l-1.15-3.09A6.5,6.5,0,0,1,306.71,372Z"/><path class="cls-4" d="M98.87,116.15c0-1.22,0-2.43.08-3.63H81v8.25H99C98.91,119.24,98.87,117.7,98.87,116.15Z"/><path class="cls-4" d="M295.36,112.52c.05,1.2.08,2.41.08,3.63q0,2.32-.12,4.62h19v-8.25Z"/><path class="cls-4" d="M94.57,171.4l4.13,7.14,15.84-9.14q-2.24-3.47-4.18-7.12Z"/><path class="cls-4" d="M300.73,61.9l-4.12-7.15-16.11,9.3q2.19,3.49,4.09,7.17Z"/><path class="cls-4" d="M243.29,29.35c2.43,1.3,4.81,2.69,7.11,4.18l9.15-15.84-7.15-4.13Z"/><path class="cls-4" d="M201.78,18V0h-8.25V17.94c1.2-.05,2.41-.08,3.62-.08C198.7,17.86,200.25,17.9,201.78,18Z"/><path class="cls-4" d="M142.9,13.56l-7.14,4.13,8.87,15.37c2.32-1.47,4.71-2.84,7.15-4.11Z"/><path class="cls-4" d="M114.07,63.63,98.7,54.75,94.57,61.9,110,70.78Q111.87,67.1,114.07,63.63Z"/><path class="cls-4" d="M280,169l16.57,9.56,4.12-7.14-16.55-9.56Q282.26,165.5,280,169Z"/><path class="cls-4" d="M243.73,94.81a50.76,50.76,0,0,0-4-7.21,51.48,51.48,0,0,0-20-17.45,51,51,0,0,0-17.95-5c-1.53-.14-3.07-.22-4.63-.22-1.22,0-2.42.06-3.62.14a51,51,0,0,0-18.17,4.73,50.07,50.07,0,0,0-7.16,4.1,51.45,51.45,0,0,0-17.42,20.47,51,51,0,0,0-4.72,18.17c-.08,1.2-.14,2.41-.14,3.63,0,1.56.08,3.1.22,4.62a50.81,50.81,0,0,0,5,18,51.08,51.08,0,0,0,24.65,24,50.83,50.83,0,0,0,17.72,4.52c1.2.08,2.4.14,3.62.14,1.56,0,3.1-.08,4.63-.22a50.74,50.74,0,0,0,24.63-9,51.54,51.54,0,0,0,17-19.92,51,51,0,0,0,4.8-17.51c.14-1.52.22-3.06.22-4.62,0-1.22-.06-2.43-.14-3.63A50.72,50.72,0,0,0,243.73,94.81Zm-28.91,27-6,6-.06,0-6,6-1,1-8.25,8.25-3.73,3.73a4,4,0,0,1-5.08.47,4.26,4.26,0,0,1-.58-.47l-5.5-5.5L173,135.65l-6-6-5.16-5.15,3.69-3.69,2-2,2,2,4.7,4.7,6,6,2.64,2.64,4.18,4.18,6.56-6.55.36-.36,4.77-4.78,3-3,.17-.16,2.76-2.76.16-.17,3-2.95,4.78-4.77.36-.36,16.08-16.08,4.41,4.4,1.25,1.25L224.1,112.52l-8.25,8.25Z"/><path class="cls-3" d="M403.33,294.94H401v-1.43h6.5v1.43h-2.35v5.75h-1.81Zm5.59-1.43h2.56L413,298l1.57-4.48h2.53l.27,7.18h-1.75l-.21-5.21-1.84,5.21h-1.19l-1.83-5.24-.16,5.24h-1.75Z"/></g></g></svg>